<svg xmlns="http://www.w3.org/2000/svg" enable-background="new 0 0 1024 1024" viewBox="0 0 1024 1024"><path d="M532.2,984c33.8-21.5,67.7-42.9,101.5-64.4c15.3-9.7,30.8-19.3,45.7-29.7c35.4-24.7,68.6-52.8,98.1-84.4
				c58.4-62.7,102.8-137,130.9-217.9c22.9-66.1,32.7-135.8,32.7-205.6c0-43.2,0-86.4,0-129.6c0-1.2,0-2.3,0-3.5
				c0-17.9-12.5-33.5-29.4-38.6c-12.2-3.7-24.3-7.5-36-12.4c3.2,1.3,6.4,2.7,9.6,4c-20.9-8.9-40.5-20.3-58.5-34.1
				c2.7,2.1,5.4,4.2,8.1,6.3c-17.8-13.8-33.8-29.7-47.6-47.5c2.1,2.7,4.2,5.4,6.3,8.1c-13.8-18-25.3-37.7-34.2-58.6
				c1.3,3.2,2.7,6.4,4,9.6c-3-7.2-5.8-14.6-8.2-22c-5.4-16.9-20.5-29.4-38.6-29.4c-13.6,0-27.2,0-40.8,0c-32.6,0-65.3,0-97.9,0
				c-39.3,0-78.6,0-117.9,0c-34.1,0-68.2,0-102.3,0c-16.5,0-33.1-0.5-49.6,0c-0.2,0-0.5,0-0.7,0c-18.2,0-33.2,12.5-38.6,29.4
				c-2.4,7.5-5.1,14.8-8.2,22c1.3-3.2,2.7-6.4,4-9.6c-8.9,20.9-20.4,40.5-34.2,58.6c2.1-2.7,4.2-5.4,6.3-8.1
				c-13.8,17.8-29.8,33.7-47.6,47.5c2.7-2.1,5.4-4.2,8.1-6.3c-18,13.8-37.7,25.2-58.5,34.1c3.2-1.3,6.4-2.7,9.6-4
				c-11.8,4.9-23.8,8.7-36,12.4c-16.9,5.1-29.4,20.7-29.4,38.6c0,40.2,0,80.4,0,120.6c0,21.2,0,42.4,1.5,63.6
				c3.2,43.1,10.5,86.1,22.6,127.6C131,643.1,172.6,719,227.8,784.5c42.9,50.9,94.6,92.1,150.6,127.6
				c36.9,23.4,73.8,46.8,110.7,70.2c0.9,0.6,1.9,1.2,2.8,1.8c17.7,11.2,44.9,4.3,54.7-14.4c10.4-19.8,4.5-42.7-14.4-54.7
				c-18-11.4-36-22.8-53.9-34.2c-23-14.6-45.9-29.1-68.9-43.7c-16.1-10.2-31.8-21.1-47-32.7c2.7,2.1,5.4,4.2,8.1,6.3
				c-37.8-29.3-71.8-63.3-101.1-101.1c2.1,2.7,4.2,5.4,6.3,8.1c-29.8-38.7-54.6-81.1-73.7-126.1c1.3,3.2,2.7,6.4,4,9.6
				c-19.5-46.3-32.8-94.9-39.5-144.7c0.5,3.5,1,7.1,1.4,10.6c-4.3-32.4-5-64.8-5-97.3c0-31.6,0-63.2,0-94.8c0-8.6,0-17.1,0-25.7
				c-9.8,12.9-19.6,25.7-29.4,38.6c34.5-10.4,67.9-24.2,97.2-45.3c34.7-25,64.3-55.8,86.3-92.6c12.1-20.2,21.8-42.2,29-64.6
				c-12.9,9.8-25.7,19.6-38.6,29.4c13.6,0,27.2,0,40.8,0c32.6,0,65.3,0,97.9,0c39.3,0,78.6,0,117.9,0c34.1,0,68.2,0,102.3,0
				c16.5,0,33.1,0.4,49.6,0c0.2,0,0.5,0,0.7,0c-12.9-9.8-25.7-19.6-38.6-29.4c25.1,78.3,82.1,146.4,156.9,181.6
				c18,8.5,36.5,15.1,55.6,20.9c-9.8-12.9-19.6-25.7-29.4-38.6c0,22.4,0,44.8,0,67.2c0,24.9,0,49.8,0,74.6c0,25.4-1.7,50.8-5,76
				c0.5-3.5,1-7.1,1.4-10.6c-6.8,49.7-20.1,98.4-39.5,144.7c1.3-3.2,2.7-6.4,4-9.6c-19.1,45-43.9,87.4-73.7,126.1
				c2.1-2.7,4.2-5.4,6.3-8.1c-29.3,37.8-63.3,71.8-101.1,101.1c2.7-2.1,5.4-4.2,8.1-6.3c-22.4,17.3-46.2,32.2-70,47.4
				c-26.4,16.8-52.8,33.5-79.2,50.3c-6.8,4.3-13.7,8.7-20.5,13c-8.7,5.5-15.6,13.8-18.4,23.9c-2.6,9.6-1.4,22.3,4,30.8
				C488.9,987.4,513.3,996,532.2,984z"/><path d="M308.2,509.9c34.2,34.2,68.4,68.4,102.7,102.7c4.9,4.9,9.8,9.8,14.6,14.6c15.3,15.3,41.3,15.3,56.6,0
				c26.4-26.4,52.9-52.9,79.3-79.3c41.8-41.8,83.7-83.7,125.5-125.5c9.6-9.6,19.3-19.3,28.9-28.9c14.8-14.8,15.9-42,0-56.6
				c-16-14.7-40.8-15.8-56.6,0c-26.4,26.4-52.9,52.9-79.3,79.3c-41.8,41.8-83.7,83.7-125.5,125.5c-9.6,9.6-19.3,19.3-28.9,28.9
				c18.9,0,37.7,0,56.6,0c-34.2-34.2-68.4-68.4-102.7-102.7c-4.9-4.9-9.8-9.8-14.6-14.6c-14.8-14.8-42-15.9-56.6,0
				C293.5,469.3,292.4,494,308.2,509.9L308.2,509.9z"/></svg>